<svg xmlns="http://www.w3.org/2000/svg" width="32" height="32" viewBox="0 0 32 32">
<!-- SVG created with Arrow, by QuiverAI (https://quiver.ai) -->
<!-- SPDX-FileCopyrightText: 2026 Brando Giuffrida -->
<!-- SPDX-License-Identifier: GPL-3.0-or-later -->
  <rect x="1" width="29.98" height="32" fill="#051231"/>
  <path d="m7.08 4.03c-2.45 0-4.4 1.91-4.4 4.19v7.17c1.38-0.88 3.1-1.43 5.18-1.54 4.61-0.26 8.49-1.34 10.98-3.64 1.78-1.67 3.25-4.37 3.93-6.08-5.04-0.05-10.38-0.1-15.69-0.1z" fill="#173366"/>
  <path d="m7.56 15.01c-1.92 0-3.75 0.74-4.88 1.42v7.25c2.79-1.92 5.94-3.5 8.87-4.82 2.69-1.21 4.72-2.87 5.99-4.28-1.03 0.74-2.28 1.04-3.57 1.04-2.14-0.04-4.31-0.61-6.41-0.61z" fill="#287893"/>
  <path d="m29.36 1.71c-2.96 1.72-5.28 4.47-7.21 7.23-2.83 4.03-6.07 7.82-10.6 9.92-3.06 1.41-6.16 3.1-8.87 4.82v2.47c0 1.29 0.6 2.31 1.48 2.92 1.7-1.21 4.27-2.76 6.76-4.32 8.73-5.39 16.07-12.6 18.44-16.13v-6.91z" fill="#5BDECA"/>
  <path d="m25.83 19.33c-4.32 0-8.61 2.45-12.64 4.84-2.67 1.6-5.7 2.93-7.68 4.01-0.55 0.34-1 0.65-1.36 0.89 0.8 0.79 1.87 1.28 2.93 1.28h17.89c2.36 0 4.39-1.99 4.39-4.18v-6.3c-1.15-0.35-2.34-0.54-3.53-0.54z" fill="#173366"/>
</svg>